HIERARCHY
ROOT Hips
{
  OFFSET 1.44925e-005 102.336 -0.101585
  CHANNELS 6 Xposition Yposition Zposition Zrotation Xrotation Yrotation
  JOINT LeftUpLeg
  {
    OFFSET 8.9458 -8.66707 0.101652
    CHANNELS 3 Zrotation Xrotation Yrotation
    JOINT LeftLeg
    {
      OFFSET 0 -44.4227 1.3727
      CHANNELS 3 Zrotation Xrotation Yrotation
      JOINT LeftFoot
      {
        OFFSET -0.253549 -42.0924 -1.46059
        CHANNELS 3 Zrotation Xrotation Yrotation
        JOINT LeftToes
        {
          OFFSET -0.04 -4.41509 8.4991
          CHANNELS 3 Zrotation Xrotation Yrotation
          End Site
          {
            OFFSET 0.08 -0.047448 9.77979
          }
        }
      }
    }
  }
  JOINT Spine
  {
    OFFSET 0 11.8905 0
    CHANNELS 3 Zrotation Xrotation Yrotation
    JOINT Spine1
    {
      OFFSET 0 25.6574 0.127663
      CHANNELS 3 Zrotation Xrotation Yrotation
      JOINT RightShoulder
      {
        OFFSET -8.99 -0.362252 -0.22
        CHANNELS 3 Zrotation Xrotation Yrotation
        JOINT RightArm
        {
          OFFSET -10.2827 -0.00338 0.322123
          CHANNELS 3 Zrotation Xrotation Yrotation
          JOINT RightForeArm
          {
            OFFSET -26.364 0.099144 -1.42434
            CHANNELS 3 Zrotation Xrotation Yrotation
            JOINT RightHand
            {
              OFFSET -22.0324 0.085362 1.02216
              CHANNELS 3 Zrotation Xrotation Yrotation
              End Site
              {
                OFFSET -13.3284 -0.6 1.50291
              }
            }
          }
        }
      }
      JOINT LeftShoulder1
      {
        OFFSET 8.99 -0.362252 -0.22
        CHANNELS 3 Zrotation Xrotation Yrotation
        JOINT LeftArm
        {
          OFFSET 10.2827 -0.00337999 0.322123
          CHANNELS 3 Zrotation Xrotation Yrotation
          JOINT LeftForeArm
          {
            OFFSET 26.2597 0.099144 -1.42434
            CHANNELS 3 Zrotation Xrotation Yrotation
            JOINT LeftHand
            {
              OFFSET 22.0902 0.085362 1.02216
              CHANNELS 3 Zrotation Xrotation Yrotation
              End Site
              {
                OFFSET 13.419 -0.6 1.50291
              }
            }
          }
        }
      }
      JOINT Head
      {
        OFFSET 0 8.73416 0.011341
        CHANNELS 3 Zrotation Xrotation Yrotation
        End Site
        {
          OFFSET -0.29 12.7742 2.51395
        }
      }
    }
  }
  JOINT RightUpLeg
  {
    OFFSET -8.9458 -8.66707 0.101652
    CHANNELS 3 Zrotation Xrotation Yrotation
    JOINT RightLeg
    {
      OFFSET 0 -44.4227 1.3727
      CHANNELS 3 Zrotation Xrotation Yrotation
      JOINT RightFoot
      {
        OFFSET 0.253549 -42.0924 -1.46059
        CHANNELS 3 Zrotation Xrotation Yrotation
        JOINT RightToes
        {
          OFFSET 0.04 -4.41509 8.4991
          CHANNELS 3 Zrotation Xrotation Yrotation
          End Site
          {
            OFFSET -0.08 -0.137448 9.77979
          }
        }
      }
    }
  }
}
MOTION
Frames:	14
Frame Time:	0.0333333
191.566 103.101 1.01332 -3.01076 -0.929156 -88.2229 -0.108396 2.24973 2.19952 0.534931 7.97361 18.4529 -3.99747 -10.5265 -0.0612468 -1.32533e-009 8.75226e-006 -1.4724e-008 3.77355 8.6785 -0.164647 -3.96289 -6.22863 0.605237 38.2736 1.75848 -0.0405543 39.2046 -18.8352 6.3913 7.84458 40.7198 7.89999 -9.2123 9.38108 1.71343 -43.6266 3.53167 -3.53803 -27.3099 -18.7646 4.05104 -3.94682 39.8755 -13.7554 5.82328 9.61819 -0.917488 1.18273 2.13148 -4.25218 -1.45707 1.34352 -4.73411 0.529788 10.3555 -12.8057 3.14838 -12.9544 -0.0633129 0.0462048 0.000530889 0.662642 
191.55 103.101 1.02303 -3.02614 -0.928799 -88.238 -0.109078 2.28602 2.20144 0.537313 7.96089 18.4647 -4.02605 -10.5407 -0.0612496 -1.32533e-009 8.75226e-006 -1.4724e-008 3.73918 8.82545 -0.183505 -3.92537 -6.44152 0.576372 38.2312 1.7576 -0.0405543 39.2608 -19.0909 6.3122 7.93813 40.706 7.72463 -9.21509 9.41378 1.25297 -43.5437 3.53216 -3.54139 -27.4322 -18.587 4.16503 -3.84448 39.7001 -13.9221 5.82328 9.61819 -0.917488 1.38746 2.34921 -4.14642 -1.47474 1.36072 -4.7624 0.548717 10.3782 -12.7717 3.14513 -12.9713 -0.0633172 0.0462048 0.000530889 0.662642 
191.508 103.101 1.03521 -3.06501 -0.916776 -88.267 -0.108136 2.36761 2.21481 0.539778 7.947 18.4806 -4.03959 -10.5667 -0.0612548 -1.32533e-009 8.75226e-006 -1.4724e-008 3.57884 8.85461 -0.165252 -3.71247 -6.44873 0.55959 38.1077 1.75303 -0.0405542 39.3753 -19.4318 6.2799 8.14535 40.3841 7.431 -9.26054 9.47105 0.412996 -43.5748 3.53929 -3.5522 -27.4963 -18.4196 4.17466 -3.78555 39.5118 -14.0437 5.82328 9.61819 -0.917488 1.63496 2.64588 -4.12766 -1.48877 1.43964 -4.80673 0.586498 10.3575 -12.708 3.13006 -12.9942 -0.063323 0.0462048 0.000530889 0.662642 
191.446 103.101 1.04689 -3.12984 -0.90381 -88.3711 -0.108215 2.51515 2.24817 0.541491 7.89664 18.5571 -4.0189 -10.5873 -0.0612589 -1.32533e-009 8.75226e-006 -1.4724e-008 3.38755 8.51104 -0.100475 -3.47875 -5.87436 0.594556 38.0016 1.74589 -0.040554 39.514 -19.7645 6.49515 8.3716 40.1308 7.09923 -9.24957 9.51474 -0.193417 -43.7701 3.56176 -3.56688 -27.3728 -18.5225 3.88588 -3.90817 39.5371 -13.8961 5.82328 9.61819 -0.917488 1.70691 2.68348 -4.1996 -1.49051 1.5638 -4.8309 0.595274 10.3042 -12.5813 3.11398 -13.0133 -0.0633279 0.0462048 0.000530889 0.662642 
191.387 103.101 1.05959 -3.19547 -0.895201 -88.5213 -0.113946 2.6744 2.28553 0.531215 7.82976 18.6695 -4.01337 -10.6057 -0.0612626 -1.32533e-009 8.75226e-006 -1.4724e-008 3.29497 8.13684 -0.0758315 -3.40506 -5.25177 0.615061 37.9188 1.74173 -0.040554 39.7046 -20.0713 6.77668 8.46745 40.3601 6.86575 -9.157 9.52077 -0.218047 -43.9083 3.57927 -3.58034 -27.2303 -18.678 3.57861 -4.04699 39.5834 -13.7203 5.82328 9.61819 -0.917488 1.7448 2.62198 -4.14374 -1.48643 1.67062 -4.8286 0.567292 10.2714 -12.4305 3.11352 -13.0191 -0.0633294 0.0462048 0.000530889 0.662642 
191.345 103.101 1.07133 -3.20437 -0.884999 -88.6015 -0.109319 2.72209 2.30578 0.519241 7.82309 18.7215 -4.05777 -10.6325 -0.061268 -1.32533e-009 8.75226e-006 -1.4724e-008 3.28029 8.14407 -0.141751 -3.43115 -5.24517 0.551522 37.7957 1.73991 -0.0405539 39.928 -20.2515 6.80854 8.39315 40.8023 6.8548 -9.11136 9.5018 0.0807453 -43.8516 3.57981 -3.5901 -27.2355 -18.5128 3.59886 -3.98592 39.3268 -13.8546 5.82328 9.61819 -0.917488 1.95779 2.814 -3.93881 -1.47902 1.69768 -4.81804 0.546353 10.2681 -12.3613 3.11192 -13.0104 -0.0633272 0.0462048 0.000530889 0.662642 
191.315 103.101 1.08171 -3.12943 -0.870592 -88.6008 -0.0948315 2.63204 2.30294 0.51012 7.87655 18.7179 -4.11781 -10.6596 -0.0612734 -1.32533e-009 8.75226e-006 -1.4724e-008 3.25642 8.3307 -0.229352 -3.43367 -5.60319 0.454982 37.7074 1.73893 -0.0405539 40.0486 -20.3014 6.65888 8.29657 40.9506 6.94865 -9.17229 9.49148 0.186643 -43.7182 3.57054 -3.59226 -27.3322 -18.0516 3.80915 -3.78015 38.8135 -14.227 5.82328 9.61819 -0.917488 2.18732 3.07847 -3.81748 -1.47237 1.63444 -4.80903 0.55284 10.2694 -12.3753 3.11288 -13.0091 -0.0633269 0.0462048 0.000530889 0.662642 
191.277 103.101 1.09398 -3.02553 -0.859167 -88.6332 -0.088173 2.52893 2.29891 0.495575 7.90598 18.7542 -4.15079 -10.675 -0.06138 -1.32533e-009 8.75226e-006 -1.4724e-008 3.22363 8.24257 -0.253146 -3.44898 -5.61354 0.427772 37.8005 1.73863 -0.0405539 39.9776 -20.3795 6.65343 8.3109 40.8423 6.92485 -9.22346 9.50268 -0.00616186 -43.6365 3.56047 -3.58483 -27.4022 -17.6271 3.83007 -3.61956 38.367 -14.5319 5.82328 9.61819 -0.917488 2.07529 2.87878 -3.91059 -1.47295 1.5475 -4.79554 0.558283 10.2573 -12.3596 3.1237 -13.0224 -0.0633302 0.0462048 0.000530889 0.662642 
191.23 103.101 1.10764 -2.9717 -0.850123 -88.7338 -0.087693 2.51736 2.31713 0.474624 7.8851 18.8347 -4.16718 -10.6874 -0.061518 -1.32533e-009 8.75226e-006 -1.4724e-008 3.22005 7.96417 -0.23519 -3.5326 -5.28929 0.458809 38.0143 1.73887 -0.0405539 39.8244 -20.5354 6.81743 8.36899 40.8599 6.80348 -9.2013 9.51421 -0.154107 -43.5472 3.54769 -3.57315 -27.479 -17.3966 3.65485 -3.53174 38.1187 -14.6999 5.82328 9.61819 -0.917488 1.60363 2.21445 -4.09617 -1.47478 1.52206 -4.77586 0.544802 10.2257 -12.2791 3.14903 -13.025 -0.0633309 0.0462048 0.000530889 0.662642 
191.189 103.101 1.11833 -2.97424 -0.835885 -88.8033 -0.0782921 2.56019 2.34518 0.46333 7.86738 18.8707 -4.18976 -10.7055 -0.0613171 -1.32533e-009 8.75226e-006 -1.4724e-008 3.21775 7.92572 -0.246114 -3.59386 -5.22385 0.455468 38.124 1.7395 -0.0394171 39.7597 -20.5981 6.88597 8.36705 41.018 6.76489 -9.25677 9.50548 -0.0676055 -43.3923 3.53242 -3.56655 -27.6211 -17.2912 3.57202 -3.44858 37.9677 -14.8322 5.82328 9.61819 -0.917488 1.14759 1.68081 -4.22408 -1.46407 1.56427 -4.75836 0.531151 10.1802 -12.2231 3.14538 -13.0077 -0.0633265 0.0462048 0.000530889 0.662642 
191.156 103.102 1.12783 -2.98353 -0.817945 -88.7916 -0.0643052 2.5922 2.35616 0.468885 7.86261 18.8476 -4.20336 -10.7173 -0.0609156 -1.32533e-009 8.75226e-006 -1.4724e-008 3.18329 8.13113 -0.283783 -3.55002 -5.49704 0.405284 38.0576 1.74039 -0.034015 39.8119 -20.4979 6.8091 8.3596 41.005 6.79865 -9.5034 9.48879 0.00600077 -43.2924 3.52598 -3.56906 -27.7239 -17.2723 3.62584 -3.40191 37.8785 -14.9033 5.82328 9.61819 -0.917488 1.00418 1.63263 -4.26635 -1.44489 1.61499 -4.75139 0.531957 10.1383 -12.2316 3.09409 -12.9932 -0.0633228 0.0462048 0.000530889 0.662642 
191.119 103.103 1.14189 -2.98164 -0.804018 -88.7682 -0.0589699 2.62933 2.35734 0.472936 7.82968 18.83 -4.18241 -10.7182 -0.0604533 -1.32533e-009 8.75226e-006 -1.4724e-008 3.14894 8.20884 -0.297354 -3.46716 -5.62609 0.377021 37.947 1.74138 -0.0264298 39.9063 -20.4206 6.80303 8.4249 40.8022 6.75537 -9.74158 9.48747 -0.124881 -43.366 3.53556 -3.57688 -27.6755 -17.3073 3.60894 -3.43532 37.872 -14.8648 5.82328 9.61819 -0.917488 1.13295 1.87281 -4.26365 -1.43776 1.6523 -4.76045 0.540411 10.1062 -12.2351 3.04186 -12.9854 -0.0633208 0.0462048 0.000530889 0.662642 
191.071 103.104 1.1575 -2.98015 -0.796165 -88.7783 -0.0566622 2.68218 2.37286 0.460892 7.78693 18.8294 -4.13563 -10.7282 -0.0600748 -1.32533e-009 8.75226e-006 -1.4724e-008 3.12256 8.06856 -0.282677 -3.39889 -5.46835 0.383658 37.8875 1.74234 -0.0214698 39.9878 -20.4744 6.92654 8.48088 40.7318 6.67411 -9.67908 9.49752 -0.22045 -43.5392 3.55274 -3.58444 -27.5464 -17.2251 3.50359 -3.45728 37.808 -14.8621 5.82328 9.61819 -0.917488 1.39825 2.22231 -4.1541 -1.44607 1.69749 -4.78138 0.550805 10.0686 -12.2041 3.03726 -12.9689 -0.0633166 0.0462048 0.000530889 0.662642 
191.022 103.105 1.16727 -2.96078 -0.790568 -88.7811 -0.0512163 2.69275 2.38798 0.449749 7.78659 18.8165 -4.10841 -10.7557 -0.0599226 -1.32533e-009 8.75226e-006 -1.4724e-008 3.0404 7.92472 -0.267171 -3.2732 -5.33297 0.379244 37.8452 1.7431 -0.0206805 40.0293 -20.4951 7.02331 8.43107 40.9051 6.711 -9.3604 9.49831 -0.032848 -43.6999 3.56864 -3.5913 -27.4398 -16.9044 3.48451 -3.38787 37.5272 -15.0249 5.82328 9.61819 -0.917488 1.61832 2.70741 -3.65824 -1.45204 1.73259 -4.79541 0.561673 10.0224 -12.1949 3.07209 -12.9658 -0.0633158 0.0462048 0.000530889 0.662642 
